<!DOCTYPE svg PUBLIC "-//W3C//DTD SVG 1.1//EN" "http://www.w3.org/Graphics/SVG/1.1/DTD/svg11.dtd">
<!-- Uploaded to: SVG Repo, www.svgrepo.com, Transformed by: SVG Repo Mixer Tools -->
<svg fill="#7658ee" height="800px" width="800px" version="1.1" id="Layer_1" xmlns="http://www.w3.org/2000/svg" xmlns:xlink="http://www.w3.org/1999/xlink" viewBox="0 0 400.391 400.391" xml:space="preserve" data--h-bstatus="0OBSERVED" stroke="#7658ee">
<g id="SVGRepo_bgCarrier" stroke-width="0" data--h-bstatus="0OBSERVED"/>
<g id="SVGRepo_tracerCarrier" stroke-linecap="round" stroke-linejoin="round" data--h-bstatus="0OBSERVED"/>
<g id="SVGRepo_iconCarrier" data--h-bstatus="0OBSERVED"> <g data--h-bstatus="0OBSERVED"> <g data--h-bstatus="0OBSERVED"> <g data--h-bstatus="0OBSERVED"> <path d="M53.362,286.966h40.73c4.142,0,7.5-3.357,7.5-7.5s-3.358-7.5-7.5-7.5h-40.73c-4.142,0-7.5,3.357-7.5,7.5 S49.22,286.966,53.362,286.966z" data--h-bstatus="0OBSERVED"/> <path d="M94.093,325.734h-40.73c-4.142,0-7.5,3.357-7.5,7.5s3.358,7.5,7.5,7.5h40.73c4.142,0,7.5-3.357,7.5-7.5 S98.235,325.734,94.093,325.734z" data--h-bstatus="0OBSERVED"/> <path d="M108.282,289.89H39.173c-4.142,0-7.5,3.357-7.5,7.5s3.358,7.5,7.5,7.5h69.108c4.142,0,7.5-3.357,7.5-7.5 S112.424,289.89,108.282,289.89z" data--h-bstatus="0OBSERVED"/> <path d="M361.217,76.397h-69.108c-4.142,0-7.5,3.357-7.5,7.5c0,4.143,3.358,7.5,7.5,7.5h69.108c4.142,0,7.5-3.357,7.5-7.5 C368.717,79.754,365.359,76.397,361.217,76.397z" data--h-bstatus="0OBSERVED"/> <path d="M400.391,93.093c0-40.653-33.074-73.727-73.728-73.727c-35.136,0-64.59,24.713-71.942,57.666 c-18.58-8.133-38.868-12.41-59.28-12.41c-38.045,0-72.772,14.469-98.975,38.189H74.864c-32.24,0-58.469,26.229-58.469,58.469 c0,22,12.185,41.832,31.432,51.848c0.047,7.962,0.731,15.907,2.04,23.715C20.892,246.784,0,274.282,0,306.585 c0,40.651,33.074,73.724,73.728,73.724c9.408,0,18.539-1.747,27.199-5.198c7.45,3.88,15.739,5.914,24.199,5.914 c5.782,0,11.49-0.949,16.966-2.821c2.636-0.901,4.556-3.189,4.984-5.942c0.429-2.754-0.704-5.518-2.942-7.178 c-4.997-3.707-8.944-8.529-11.571-14.097c0.958-1.269,1.86-2.572,2.73-3.895c18.929,8.477,39.125,12.782,60.147,12.782 c38.045,0,72.773-14.469,98.976-38.189h21.601c32.24,0,58.469-26.229,58.469-58.469c0-21.999-12.185-41.83-31.431-51.848 c-0.09-15.48-2.54-30.614-7.305-45.132C372.13,161.741,400.391,130.665,400.391,93.093z M169.41,82.194 c-6.913,6.181-13.602,13.161-19.733,20.617h-29.069C135.078,92.886,151.605,85.751,169.41,82.194z M102.421,117.812h36.138 c-3.637,5.48-6.945,11.115-9.917,16.881H87.923C92.282,128.666,97.134,123.02,102.421,117.812z M109.698,205.433h-46.71 c1.021-20.072,6.532-38.979,15.536-55.74h43.259C114.641,167.504,110.547,186.296,109.698,205.433z M112.354,243.82 c-11.241-6.943-24.471-10.962-38.626-10.962c-3.126,0-6.2,0.219-9.225,0.598c-0.69-4.304-1.162-8.653-1.429-13.023h46.617 C110.035,228.328,110.927,236.136,112.354,243.82z M48.711,196.021c-10.762-8.084-17.316-20.828-17.316-34.74 c0-23.969,19.5-43.469,43.469-43.469h7.201C63.959,139.511,51.958,166.466,48.711,196.021z M118.27,344.829 c-1.742,2.026-2.274,4.825-1.397,7.349c1.734,4.993,4.18,9.644,7.253,13.833c-6.653-0.176-13.121-2.113-18.766-5.628 c-1.208-0.752-2.583-1.133-3.964-1.133c-1.067,0-2.139,0.228-3.138,0.688c-7.735,3.563-15.988,5.37-24.53,5.37 C41.345,365.309,15,338.965,15,306.585c0-32.382,26.345-58.727,58.728-58.727c32.381,0,58.725,26.345,58.725,58.727 C132.453,320.606,127.416,334.188,118.27,344.829z M132.702,262.393c-4.623-13.474-7.302-27.552-7.992-41.96h63.23v55.739 h-47.079C138.633,271.273,135.901,266.651,132.702,262.393z M142.233,333.769c1.555-3.913,2.781-7.953,3.647-12.084h3.333 c6.843,8.28,13.729,15.113,19.984,20.607C159.947,340.441,150.941,337.597,142.233,333.769z M187.941,338.268 c-5.349-4.036-11.845-9.516-18.658-16.583h18.658V338.268z M187.941,306.685h-31.483c-3.568-4.714-7.077-9.882-10.414-15.513 h41.897V306.685z M187.941,205.433H124.72c0.908-19.438,5.354-38.083,13.286-55.74h49.935V205.433z M187.941,134.692h-42.234 c1.951-3.354,4.03-6.668,6.247-9.938c1.64-2.419,3.3-4.728,4.967-6.942h31.02V134.692z M187.941,102.812h-18.314 c6.726-7.061,13.095-12.516,18.314-16.51V102.812z M202.941,149.692h49.9c0.562,1.252,1.11,2.516,1.643,3.793 c-1.014,1.534-1.461,3.406-1.169,5.283c0.429,2.753,2.348,5.041,4.984,5.942c0.137,0.047,0.277,0.087,0.415,0.132 c4.298,13.11,6.796,26.719,7.458,40.59h-63.231V149.692z M257.23,117.812c2.122,5.951,5,11.629,8.592,16.881h-3.587 c-3.079-5.928-6.429-11.563-9.971-16.881H257.23z M252.948,92.714c-0.001,0.127-0.01,0.252-0.01,0.379 c0,3.266,0.229,6.511,0.657,9.719h-12.437c-6.412-7.822-13.102-14.713-19.671-20.594 C232.375,84.393,242.97,87.913,252.948,92.714z M202.941,86.265c5.917,4.522,12.15,10.063,18.307,16.547h-18.307V86.265z M202.941,117.812h30.995c3.942,5.234,7.718,10.867,11.209,16.881h-42.204V117.812z M202.941,220.433h63.23 c-1.005,20.875-6.139,39.514-13.543,55.739h-49.687V220.433z M202.941,291.172h41.848c-3.273,5.526-6.783,10.698-10.429,15.513 h-31.419V291.172z M202.941,338.298v-16.613h18.618C215.263,328.241,208.908,333.794,202.941,338.298z M221.799,342.239 c6.239-5.493,13.063-12.296,19.87-20.555h28.605C255.892,331.55,239.479,338.66,221.799,342.239z M288.461,306.685H252.8 c3.383-5.073,6.465-10.246,9.251-15.513h39.909C297.863,296.688,293.347,301.872,288.461,306.685z M281.192,220.433h46.615 c-1.23,20.109-6.959,39.021-16.195,55.739h-42.54C276.307,258.489,280.364,239.856,281.192,220.433z M275.192,167.53 c0.024,0,0.048,0.002,0.073,0.002c8.46,0,16.749-2.034,24.199-5.914c6.588,2.625,13.45,4.258,20.497,4.893 c4.596,12.498,7.258,25.544,7.931,38.922h-46.7C280.632,192.546,278.619,179.86,275.192,167.53z M342.171,228.476 c10.762,8.084,17.316,20.828,17.316,34.74c0,23.969-19.5,43.469-43.469,43.469h-7.2 C326.923,284.985,338.924,258.03,342.171,228.476z M326.663,151.816c-8.542,0-16.795-1.807-24.53-5.37 c-2.291-1.056-4.96-0.889-7.102,0.444c-5.645,3.515-12.113,5.452-18.766,5.628c3.073-4.189,5.52-8.84,7.253-13.833 c0.876-2.523,0.344-5.322-1.397-7.349c-9.146-10.642-14.183-24.223-14.183-38.244c0-32.382,26.344-58.727,58.725-58.727 c32.382,0,58.728,26.345,58.728,58.727C385.391,125.473,359.045,151.816,326.663,151.816z" data--h-bstatus="0OBSERVED"/> <path d="M103.64,307.812H43.815c-4.142,0-7.5,3.357-7.5,7.5s3.358,7.5,7.5,7.5h59.825c4.142,0,7.5-3.357,7.5-7.5 S107.782,307.812,103.64,307.812z" data--h-bstatus="0OBSERVED"/> <path d="M356.576,94.319H296.75c-4.142,0-7.5,3.357-7.5,7.5c0,4.143,3.358,7.5,7.5,7.5h59.825c4.142,0,7.5-3.357,7.5-7.5 C364.075,97.676,360.718,94.319,356.576,94.319z" data--h-bstatus="0OBSERVED"/> <path d="M347.028,112.242h-40.73c-4.142,0-7.5,3.357-7.5,7.5s3.358,7.5,7.5,7.5h40.73c4.142,0,7.5-3.357,7.5-7.5 S351.17,112.242,347.028,112.242z" data--h-bstatus="0OBSERVED"/> <path d="M306.298,73.474h40.73c4.142,0,7.5-3.357,7.5-7.5s-3.358-7.5-7.5-7.5h-40.73c-4.142,0-7.5,3.357-7.5,7.5 S302.156,73.474,306.298,73.474z" data--h-bstatus="0OBSERVED"/> </g> </g> </g> </g>
</svg>